<svg width="154" height="132" viewBox="0 0 154 132" fill="none" xmlns="http://www.w3.org/2000/svg">
<path d="M139.5 107.5C139.5 108.561 138.093 109.25 137.343 110C136.593 110.75 138.5 110 130.343 114L104.5 118C103 125 94.3431 115.657 91.5147 112.828C90.7646 112.078 90.3431 111.061 90.3431 110V88C90.3431 86.9391 98.593 93.2501 99.3431 92.5C100.093 91.7499 91.7823 86.5 92.8431 86.5H104.5L103.5 80.2414L119 78L120.343 84L130.343 80.2414C129.172 78.6543 136.25 84.5783 137 85.3284C137 85.3284 135 86.6569 141.5 85.3284L139.5 107.5Z" stroke="#1E1E1E" stroke-width="4" stroke-linecap="round" stroke-linejoin="round"/>
<path d="M121.672 107.5C126.09 107.5 129.672 103.918 129.672 99.5C129.672 95.0817 126.09 91.5 121.672 91.5C117.253 91.5 113.672 95.0817 113.672 99.5C113.672 103.918 117.253 107.5 121.672 107.5Z" stroke="#1E1E1E" stroke-width="4" stroke-linecap="round" stroke-linejoin="round"/>
<path d="M152 110.032C76.1428 143.572 77.2604 140.038 79.8027 36.9454" stroke="black" stroke-width="5"/>
<path d="M2 24.6366C48.7788 -24.3463 104.579 23.0183 58.4412 38.3138C12.3036 53.6092 49.8192 91.4699 103 53.8582" stroke="black" stroke-width="5"/>
<path d="M47.8323 7.00001C21.7785 31.7431 33.1684 49.7571 47.8323 108" stroke="black" stroke-width="6"/>
</svg>
