<svg width="162" height="143" viewBox="0 0 162 143" fill="none" xmlns="http://www.w3.org/2000/svg">
<g filter="url(#filter0_d_4_18)">
<path d="M143.5 107.5C143.5 108.561 142.093 109.25 141.343 110C140.593 110.75 142.5 110 134.343 114L108.5 118C107 125 98.3431 115.657 95.5147 112.828C94.7646 112.078 94.3431 111.061 94.3431 110V88C94.3431 86.9391 102.593 93.2501 103.343 92.5C104.093 91.7499 95.7823 86.5 96.8431 86.5H108.5L107.5 80.2414L123 78L124.343 84L134.343 80.2414C133.172 78.6543 140.25 84.5783 141 85.3284C141 85.3284 139 86.6569 145.5 85.3284L143.5 107.5Z" stroke="white" stroke-width="4" stroke-linecap="round" stroke-linejoin="round" shape-rendering="crispEdges"/>
<path d="M125.672 107.5C130.09 107.5 133.672 103.918 133.672 99.5C133.672 95.0817 130.09 91.5 125.672 91.5C121.253 91.5 117.672 95.0817 117.672 99.5C117.672 103.918 121.253 107.5 125.672 107.5Z" stroke="white" stroke-width="4" stroke-linecap="round" stroke-linejoin="round" shape-rendering="crispEdges"/>
</g>
<g filter="url(#filter1_d_4_18)">
<path d="M156 110.032C80.1428 143.572 81.2604 140.038 83.8027 36.9454" stroke="white" stroke-width="5"/>
</g>
<g filter="url(#filter2_d_4_18)">
<path d="M6 24.6366C52.7788 -24.3463 108.579 23.0183 62.4412 38.3138C16.3036 53.6092 53.8192 91.4699 107 53.8582" stroke="white" stroke-width="5"/>
</g>
<g filter="url(#filter3_d_4_18)">
<path d="M51.8323 7.00001C25.7785 31.7431 37.1684 49.7571 51.8323 108" stroke="white" stroke-width="6"/>
</g>
<g filter="url(#filter4_d_4_18)">
<line x1="19.9747" y1="70.3174" x2="10.9747" y2="126.317" stroke="white" stroke-width="4"/>
</g>
<g filter="url(#filter5_d_4_18)">
<line x1="20.1437" y1="68.7138" x2="59.1437" y2="133.714" stroke="white" stroke-width="5"/>
</g>
<line x1="22.5" y1="70" x2="22.5" y2="111" stroke="white" stroke-width="3"/>
<line x1="20.5" y1="58" x2="20.5" y2="70" stroke="white" stroke-width="9"/>
<line x1="23.2632" y1="69.5749" x2="44.2632" y2="82.5749" stroke="white"/>
<defs>
<filter id="filter0_d_4_18" x="88.3431" y="75.9998" width="63.1569" height="54.5477" filterUnits="userSpaceOnUse" color-interpolation-filters="sRGB">
<feFlood flood-opacity="0" result="BackgroundImageFix"/>
<feColorMatrix in="SourceAlpha" type="matrix" values="0 0 0 0 0 0 0 0 0 0 0 0 0 0 0 0 0 0 127 0" result="hardAlpha"/>
<feOffset dy="4"/>
<feGaussianBlur stdDeviation="2"/>
<feComposite in2="hardAlpha" operator="out"/>
<feColorMatrix type="matrix" values="0 0 0 0 0 0 0 0 0 0 0 0 0 0 0 0 0 0 0.25 0"/>
<feBlend mode="normal" in2="BackgroundImageFix" result="effect1_dropShadow_4_18"/>
<feBlend mode="normal" in="SourceGraphic" in2="effect1_dropShadow_4_18" result="shape"/>
</filter>
<filter id="filter1_d_4_18" x="76.5002" y="36.8838" width="84.5108" height="102.56" filterUnits="userSpaceOnUse" color-interpolation-filters="sRGB">
<feFlood flood-opacity="0" result="BackgroundImageFix"/>
<feColorMatrix in="SourceAlpha" type="matrix" values="0 0 0 0 0 0 0 0 0 0 0 0 0 0 0 0 0 0 127 0" result="hardAlpha"/>
<feOffset dy="4"/>
<feGaussianBlur stdDeviation="2"/>
<feComposite in2="hardAlpha" operator="out"/>
<feColorMatrix type="matrix" values="0 0 0 0 0 0 0 0 0 0 0 0 0 0 0 0 0 0 0.25 0"/>
<feBlend mode="normal" in2="BackgroundImageFix" result="effect1_dropShadow_4_18"/>
<feBlend mode="normal" in="SourceGraphic" in2="effect1_dropShadow_4_18" result="shape"/>
</filter>
<filter id="filter2_d_4_18" x="0.192017" y="0.496696" width="112.252" height="80.0088" filterUnits="userSpaceOnUse" color-interpolation-filters="sRGB">
<feFlood flood-opacity="0" result="BackgroundImageFix"/>
<feColorMatrix in="SourceAlpha" type="matrix" values="0 0 0 0 0 0 0 0 0 0 0 0 0 0 0 0 0 0 127 0" result="hardAlpha"/>
<feOffset dy="4"/>
<feGaussianBlur stdDeviation="2"/>
<feComposite in2="hardAlpha" operator="out"/>
<feColorMatrix type="matrix" values="0 0 0 0 0 0 0 0 0 0 0 0 0 0 0 0 0 0 0.25 0"/>
<feBlend mode="normal" in2="BackgroundImageFix" result="effect1_dropShadow_4_18"/>
<feBlend mode="normal" in="SourceGraphic" in2="effect1_dropShadow_4_18" result="shape"/>
</filter>
<filter id="filter3_d_4_18" x="29.2753" y="4.82468" width="29.4662" height="111.908" filterUnits="userSpaceOnUse" color-interpolation-filters="sRGB">
<feFlood flood-opacity="0" result="BackgroundImageFix"/>
<feColorMatrix in="SourceAlpha" type="matrix" values="0 0 0 0 0 0 0 0 0 0 0 0 0 0 0 0 0 0 127 0" result="hardAlpha"/>
<feOffset dy="4"/>
<feGaussianBlur stdDeviation="2"/>
<feComposite in2="hardAlpha" operator="out"/>
<feColorMatrix type="matrix" values="0 0 0 0 0 0 0 0 0 0 0 0 0 0 0 0 0 0 0.25 0"/>
<feBlend mode="normal" in2="BackgroundImageFix" result="effect1_dropShadow_4_18"/>
<feBlend mode="normal" in="SourceGraphic" in2="effect1_dropShadow_4_18" result="shape"/>
</filter>
<filter id="filter4_d_4_18" x="5" y="70" width="20.9493" height="64.6347" filterUnits="userSpaceOnUse" color-interpolation-filters="sRGB">
<feFlood flood-opacity="0" result="BackgroundImageFix"/>
<feColorMatrix in="SourceAlpha" type="matrix" values="0 0 0 0 0 0 0 0 0 0 0 0 0 0 0 0 0 0 127 0" result="hardAlpha"/>
<feOffset dy="4"/>
<feGaussianBlur stdDeviation="2"/>
<feComposite in2="hardAlpha" operator="out"/>
<feColorMatrix type="matrix" values="0 0 0 0 0 0 0 0 0 0 0 0 0 0 0 0 0 0 0.25 0"/>
<feBlend mode="normal" in2="BackgroundImageFix" result="effect1_dropShadow_4_18"/>
<feBlend mode="normal" in="SourceGraphic" in2="effect1_dropShadow_4_18" result="shape"/>
</filter>
<filter id="filter5_d_4_18" x="14" y="67.4275" width="51.2875" height="75.5725" filterUnits="userSpaceOnUse" color-interpolation-filters="sRGB">
<feFlood flood-opacity="0" result="BackgroundImageFix"/>
<feColorMatrix in="SourceAlpha" type="matrix" values="0 0 0 0 0 0 0 0 0 0 0 0 0 0 0 0 0 0 127 0" result="hardAlpha"/>
<feOffset dy="4"/>
<feGaussianBlur stdDeviation="2"/>
<feComposite in2="hardAlpha" operator="out"/>
<feColorMatrix type="matrix" values="0 0 0 0 0 0 0 0 0 0 0 0 0 0 0 0 0 0 0.25 0"/>
<feBlend mode="normal" in2="BackgroundImageFix" result="effect1_dropShadow_4_18"/>
<feBlend mode="normal" in="SourceGraphic" in2="effect1_dropShadow_4_18" result="shape"/>
</filter>
</defs>
</svg>
